<svg width="14" height="14" viewBox="0 0 14 14" fill="none" xmlns="http://www.w3.org/2000/svg">
<g id="eva:edit-2-outline">
<path id="Vector" d="M3.0472 11.7064H3.10254L5.66678 11.4727C5.94767 11.4448 6.21039 11.321 6.41083 11.1222L11.9452 5.58792C12.16 5.36099 12.276 5.05816 12.268 4.7458C12.2599 4.43343 12.1283 4.137 11.9021 3.92147L10.2172 2.23657C9.99732 2.03002 9.70916 1.9115 9.40757 1.90356C9.10597 1.89563 8.81198 1.99883 8.58152 2.19353L3.0472 7.72785C2.84843 7.9283 2.72467 8.19102 2.69669 8.47191L2.43227 11.0361C2.42399 11.1262 2.43568 11.217 2.4665 11.302C2.49732 11.3871 2.54653 11.4643 2.6106 11.5281C2.66806 11.5851 2.7362 11.6302 2.81112 11.6608C2.88604 11.6914 2.96627 11.7069 3.0472 11.7064ZM9.36247 3.09747L11.0412 4.77621L9.81137 5.97532L8.16337 4.32732L9.36247 3.09747ZM3.88964 8.57645L7.35167 5.13902L9.01197 6.79932L5.56839 10.2429L3.72361 10.4151L3.88964 8.57645Z" fill="#A2A6B0"/>
</g>
</svg>
